<svg width="30" height="30" viewBox="0 0 30 30" fill="none" xmlns="http://www.w3.org/2000/svg">
<path d="M16.9299 13.0698C15.906 12.0464 14.5176 11.4714 13.0699 11.4714C11.6222 11.4714 10.2338 12.0464 9.20988 13.0698L5.34863 16.9298C4.32473 17.9537 3.74951 19.3424 3.74951 20.7905C3.74951 22.2385 4.32473 23.6272 5.34863 24.6511C6.37254 25.675 7.76124 26.2502 9.20926 26.2502C10.6573 26.2502 12.046 25.675 13.0699 24.6511L14.9999 22.7211" stroke="black" stroke-width="2" stroke-linecap="round" stroke-linejoin="round"/>
<path d="M13.0698 16.9299C14.0937 17.9533 15.4821 18.5283 16.9298 18.5283C18.3775 18.5283 19.7659 17.9533 20.7898 16.9299L24.6511 13.0699C25.675 12.046 26.2502 10.6573 26.2502 9.20926C26.2502 7.76124 25.675 6.37254 24.6511 5.34863C23.6272 4.32473 22.2385 3.74951 20.7904 3.74951C19.3424 3.74951 17.9537 4.32473 16.9298 5.34863L14.9998 7.27863" stroke="black" stroke-width="2" stroke-linecap="round" stroke-linejoin="round"/>
</svg>
