<svg width="30" height="30" viewBox="0 0 30 30" fill="none" xmlns="http://www.w3.org/2000/svg">
<path d="M7.73438 6.73828H22.2656C22.3945 6.73828 22.5 6.63281 22.5 6.50391V4.86328C22.5 4.73438 22.3945 4.62891 22.2656 4.62891H7.73438C7.60547 4.62891 7.5 4.73438 7.5 4.86328V6.50391C7.5 6.63281 7.60547 6.73828 7.73438 6.73828ZM22.2656 19.1602C22.3945 19.1602 22.5 19.0547 22.5 18.9258V17.2852C22.5 17.1562 22.3945 17.0508 22.2656 17.0508H7.73438C7.60547 17.0508 7.5 17.1562 7.5 17.2852V18.9258C7.5 19.0547 7.60547 19.1602 7.73438 19.1602H22.2656ZM26.4844 23.2617H3.51562C3.38672 23.2617 3.28125 23.3672 3.28125 23.4961V25.1367C3.28125 25.2656 3.38672 25.3711 3.51562 25.3711H26.4844C26.6133 25.3711 26.7188 25.2656 26.7188 25.1367V23.4961C26.7188 23.3672 26.6133 23.2617 26.4844 23.2617ZM26.4844 10.8398H3.51562C3.38672 10.8398 3.28125 10.9453 3.28125 11.0742V12.7148C3.28125 12.8438 3.38672 12.9492 3.51562 12.9492H26.4844C26.6133 12.9492 26.7188 12.8438 26.7188 12.7148V11.0742C26.7188 10.9453 26.6133 10.8398 26.4844 10.8398Z" fill="black"/>
</svg>
