<svg width="41" height="42" viewBox="0 0 41 42" fill="none" xmlns="http://www.w3.org/2000/svg">
<rect x="0.847412" y="0.923828" width="40.1527" height="40.1527" rx="20.0763" fill="#E5E7EB"/>
<path d="M28.9544 30.0346V28.027C28.9544 26.9621 28.5313 25.9408 27.7783 25.1878C27.0253 24.4348 26.004 24.0117 24.9391 24.0117H16.9086C15.8437 24.0117 14.8224 24.4348 14.0694 25.1878C13.3163 25.9408 12.8933 26.9621 12.8933 28.027V30.0346" stroke="#111827" stroke-width="1.60611" stroke-linecap="round" stroke-linejoin="round"/>
<path d="M20.9238 19.9964C23.1414 19.9964 24.9391 18.1987 24.9391 15.9811C24.9391 13.7635 23.1414 11.9658 20.9238 11.9658C18.7063 11.9658 16.9086 13.7635 16.9086 15.9811C16.9086 18.1987 18.7063 19.9964 20.9238 19.9964Z" stroke="#111827" stroke-width="1.60611" stroke-linecap="round" stroke-linejoin="round"/>
</svg>
