<svg width="24" height="24" viewBox="0 0 24 24" fill="none" xmlns="http://www.w3.org/2000/svg">
<path d="M15.1716 2C15.702 2 16.2107 2.21071 16.5858 2.58579L20.4142 6.41421C20.7893 6.78929 21 7.29799 21 7.82843V20.993C21 21.549 20.555 22 20.007 22H3.993C3.445 22 3 21.545 3 21.008V2.992C3 2.444 3.447 2 3.999 2H15.1716ZM15 6C15 4.89543 14.1046 4 13 4H7C5.89543 4 5 4.89543 5 6V18C5 19.1046 5.89543 20 7 20H17C18.1046 20 19 19.1046 19 18V10C19 8.89543 18.1046 8 17 8C15.8954 8 15 7.10457 15 6ZM12.5 10C12.7761 10 13 10.2239 13 10.5V14.5C13 14.7761 12.7761 15 12.5 15C12.2239 15 12 14.7761 12 14.5V10.5C12 10.2239 12.2239 10 12.5 10ZM10.5 10C10.7761 10 11 10.2239 11 10.5C11 10.7761 10.7761 11 10.5 11H9C8.448 11 8 11.448 8 12V13C8 13.552 8.448 14 9 14H9.5C9.77614 14 10 13.7761 10 13.5C10 13.2239 9.77614 13 9.5 13C9.22386 13 9 12.7761 9 12.5C9 12.2239 9.22386 12 9.5 12H10C10.5523 12 11 12.4477 11 13V14C11 14.552 10.552 15 10 15H9C7.895 15 7 14.105 7 13V12C7 10.895 7.895 10 9 10H10.5ZM16.5 10C16.7761 10 17 10.2239 17 10.5C17 10.7761 16.7761 11 16.5 11H15.5C15.2239 11 15 11.2239 15 11.5C15 11.7761 15.2239 12 15.5 12H16.5C16.7761 12 17 12.2239 17 12.5C17 12.7761 16.7761 13 16.5 13H16C15.4477 13 15 13.4477 15 14V14.5C15 14.7761 14.7761 15 14.5 15C14.2239 15 14 14.7761 14 14.5V11.5C14 10.6716 14.6716 10 15.5 10H16.5Z" fill="#6CAAF7"/>
</svg>
