<svg width="25" height="24" viewBox="0 0 25 24" fill="none" xmlns="http://www.w3.org/2000/svg">
<path d="M8.4751 12H8.4851H8.4751ZM12.4751 12H12.4851H12.4751ZM16.4751 12H16.4851H16.4751ZM21.4751 12C21.4751 13.1819 21.2423 14.3522 20.79 15.4442C20.3377 16.5361 19.6748 17.5282 18.8391 18.364C18.0033 19.1997 17.0112 19.8626 15.9192 20.3149C14.8273 20.7672 13.657 21 12.4751 21C11.2932 21 10.1229 20.7672 9.03095 20.3149C7.93902 19.8626 6.94686 19.1997 6.11114 18.364C5.27541 17.5282 4.61247 16.5361 4.16018 15.4442C3.70789 14.3522 3.4751 13.1819 3.4751 12C3.4751 9.61305 4.42331 7.32387 6.11114 5.63604C7.79896 3.94821 10.0881 3 12.4751 3C14.862 3 17.1512 3.94821 18.8391 5.63604C20.5269 7.32387 21.4751 9.61305 21.4751 12Z" stroke="black" stroke-width="2" stroke-linecap="round" stroke-linejoin="round"/>
</svg>
