<svg width="35" height="35" viewBox="0 0 35 35" fill="none" xmlns="http://www.w3.org/2000/svg">
<path d="M28.4375 18.1409V15.3125H26.25V18.5938C26.2501 18.8838 26.3653 19.162 26.5705 19.367L29.5312 22.3278V24.0625H5.46875V22.3278L8.42953 19.367C8.63466 19.162 8.74994 18.8838 8.75 18.5938V14.2188C8.74695 12.6818 9.14955 11.1713 9.91713 9.83972C10.6847 8.50817 11.7901 7.40276 13.1216 6.63513C14.4531 5.86751 15.9636 5.46486 17.5006 5.46785C19.0375 5.47085 20.5465 5.87938 21.875 6.65219V4.20766C20.8339 3.74666 19.7265 3.45284 18.5938 3.33703V1.09375H16.4062V3.33594C13.7097 3.61039 11.2107 4.87497 9.39243 6.88514C7.57419 8.8953 6.56589 11.5083 6.5625 14.2188V18.1409L3.60172 21.1017C3.39659 21.3068 3.28131 21.5849 3.28125 21.875V25.1562C3.28125 25.4463 3.39648 25.7245 3.6016 25.9296C3.80672 26.1348 4.08492 26.25 4.375 26.25H12.0312V27.3438C12.0312 28.7942 12.6074 30.1852 13.633 31.2107C14.6586 32.2363 16.0496 32.8125 17.5 32.8125C18.9504 32.8125 20.3414 32.2363 21.367 31.2107C22.3926 30.1852 22.9688 28.7942 22.9688 27.3438V26.25H30.625C30.9151 26.25 31.1933 26.1348 31.3984 25.9296C31.6035 25.7245 31.7188 25.4463 31.7188 25.1562V21.875C31.7187 21.5849 31.6034 21.3068 31.3983 21.1017L28.4375 18.1409ZM20.7812 27.3438C20.7812 28.214 20.4355 29.0486 19.8202 29.6639C19.2048 30.2793 18.3702 30.625 17.5 30.625C16.6298 30.625 15.7952 30.2793 15.1798 29.6639C14.5645 29.0486 14.2188 28.214 14.2188 27.3438V26.25H20.7812V27.3438Z" fill="#1678F3"/>
<path d="M28.4375 13.125C30.8537 13.125 32.8125 11.1662 32.8125 8.75C32.8125 6.33375 30.8537 4.375 28.4375 4.375C26.0213 4.375 24.0625 6.33375 24.0625 8.75C24.0625 11.1662 26.0213 13.125 28.4375 13.125Z" fill="#1678F3"/>
</svg>
