<svg width="25" height="24" viewBox="0 0 25 24" fill="none" xmlns="http://www.w3.org/2000/svg">
<path d="M11.4751 7H13.4751V17H11.4751V7ZM15.4751 11H17.4751V17H15.4751V11ZM7.4751 13H9.4751V17H7.4751V13ZM15.4751 4H5.4751V20H19.4751V8H15.4751V4ZM3.4751 2.992C3.4751 2.444 3.9221 2 4.4741 2H16.4751L21.4751 7V20.993C21.476 21.1243 21.4511 21.2545 21.4017 21.3762C21.3523 21.4979 21.2794 21.6087 21.1872 21.7022C21.095 21.7957 20.9852 21.8701 20.8643 21.9212C20.7433 21.9723 20.6134 21.9991 20.4821 22H4.4681C4.20548 21.9982 3.95412 21.8931 3.76832 21.7075C3.58252 21.5219 3.47719 21.2706 3.4751 21.008V2.992Z" fill="black"/>
</svg>
