<svg width="24" height="30" viewBox="0 0 24 30" fill="none" xmlns="http://www.w3.org/2000/svg">
<g clip-path="url(#clip0_1549_21923)" filter="url(#filter0_d_1549_21923)">
<path d="M12 17C13.1 17 14 16.1 14 15C14 13.9 13.1 13 12 13C10.9 13 10 13.9 10 15C10 16.1 10.9 17 12 17ZM18 8H17V6C17 3.24 14.76 1 12 1C9.24 1 7 3.24 7 6V8H6C4.9 8 4 8.9 4 10V20C4 21.1 4.9 22 6 22H18C19.1 22 20 21.1 20 20V10C20 8.9 19.1 8 18 8ZM8.9 6C8.9 4.29 10.29 2.9 12 2.9C13.71 2.9 15.1 4.29 15.1 6V8H8.9V6ZM18 20H6V10H18V20Z" fill="#4B5563"/>
</g>
<defs>
<filter id="filter0_d_1549_21923" x="-4" y="0" width="32" height="32" filterUnits="userSpaceOnUse" color-interpolation-filters="sRGB">
<feFlood flood-opacity="0" result="BackgroundImageFix"/>
<feColorMatrix in="SourceAlpha" type="matrix" values="0 0 0 0 0 0 0 0 0 0 0 0 0 0 0 0 0 0 127 0" result="hardAlpha"/>
<feOffset dy="4"/>
<feGaussianBlur stdDeviation="2"/>
<feComposite in2="hardAlpha" operator="out"/>
<feColorMatrix type="matrix" values="0 0 0 0 0 0 0 0 0 0 0 0 0 0 0 0 0 0 0.25 0"/>
<feBlend mode="normal" in2="BackgroundImageFix" result="effect1_dropShadow_1549_21923"/>
<feBlend mode="normal" in="SourceGraphic" in2="effect1_dropShadow_1549_21923" result="shape"/>
</filter>
<clipPath id="clip0_1549_21923">
<rect width="24" height="24" fill="white"/>
</clipPath>
</defs>
</svg>
