<svg width="25" height="24" viewBox="0 0 25 24" fill="none" xmlns="http://www.w3.org/2000/svg">
<path d="M10.8001 4.317C11.2261 2.561 13.7241 2.561 14.1501 4.317C14.214 4.5808 14.3393 4.82578 14.5158 5.032C14.6923 5.23822 14.915 5.39985 15.1657 5.50375C15.4165 5.60764 15.6883 5.65085 15.9589 5.62987C16.2295 5.60889 16.4913 5.5243 16.7231 5.383C18.2661 4.443 20.0331 6.209 19.0931 7.753C18.952 7.98466 18.8675 8.24634 18.8466 8.51677C18.8257 8.78721 18.8689 9.05877 18.9726 9.30938C19.0764 9.55999 19.2378 9.78258 19.4438 9.95905C19.6498 10.1355 19.8945 10.2609 20.1581 10.325C21.9141 10.751 21.9141 13.249 20.1581 13.675C19.8943 13.7389 19.6493 13.8642 19.4431 14.0407C19.2369 14.2172 19.0752 14.4399 18.9714 14.6907C18.8675 14.9414 18.8242 15.2132 18.8452 15.4838C18.8662 15.7544 18.9508 16.0162 19.0921 16.248C20.0321 17.791 18.2661 19.558 16.7221 18.618C16.4904 18.4769 16.2288 18.3924 15.9583 18.3715C15.6879 18.3506 15.4163 18.3938 15.1657 18.4975C14.9151 18.6013 14.6925 18.7627 14.516 18.9687C14.3396 19.1747 14.2142 19.4194 14.1501 19.683C13.7241 21.439 11.2261 21.439 10.8001 19.683C10.7362 19.4192 10.6109 19.1742 10.4344 18.968C10.2579 18.7618 10.0352 18.6001 9.78445 18.4963C9.53368 18.3924 9.26193 18.3491 8.99131 18.3701C8.72069 18.3911 8.45885 18.4757 8.2271 18.617C6.6841 19.557 4.9171 17.791 5.8571 16.247C5.9982 16.0153 6.08265 15.7537 6.10358 15.4832C6.12451 15.2128 6.08134 14.9412 5.97757 14.6906C5.8738 14.44 5.71236 14.2174 5.50637 14.0409C5.30038 13.8645 5.05566 13.7391 4.7921 13.675C3.0361 13.249 3.0361 10.751 4.7921 10.325C5.0559 10.2611 5.30088 10.1358 5.5071 9.95929C5.71332 9.7828 5.87495 9.56011 5.97884 9.30935C6.08274 9.05859 6.12595 8.78683 6.10497 8.51621C6.08398 8.24559 5.9994 7.98375 5.8581 7.752C4.9181 6.209 6.6841 4.442 8.2281 5.382C9.2241 5.99 10.5241 5.452 10.8001 4.317Z" stroke="black" stroke-width="2" stroke-linecap="round" stroke-linejoin="round"/>
<path d="M15.4751 12C15.4751 12.7956 15.159 13.5587 14.5964 14.1213C14.0338 14.6839 13.2707 15 12.4751 15C11.6794 15 10.9164 14.6839 10.3538 14.1213C9.79117 13.5587 9.4751 12.7956 9.4751 12C9.4751 11.2044 9.79117 10.4413 10.3538 9.87868C10.9164 9.31607 11.6794 9 12.4751 9C13.2707 9 14.0338 9.31607 14.5964 9.87868C15.159 10.4413 15.4751 11.2044 15.4751 12V12Z" stroke="black" stroke-width="2" stroke-linecap="round" stroke-linejoin="round"/>
</svg>
