<svg width="16" height="16" viewBox="0 0 16 16" fill="none" xmlns="http://www.w3.org/2000/svg">
<path d="M11.9999 13.3334H2.66659V4.00008H8.66659V2.66675H2.66659C1.93325 2.66675 1.33325 3.26675 1.33325 4.00008V13.3334C1.33325 14.0667 1.93325 14.6667 2.66659 14.6667H11.9999C12.7333 14.6667 13.3333 14.0667 13.3333 13.3334V7.33341H11.9999V13.3334ZM6.80659 11.2201L5.49992 9.64675L3.66659 12.0001H10.9999L8.63992 8.86008L6.80659 11.2201ZM13.3333 2.66675V0.666748H11.9999V2.66675H9.99992C10.0066 2.67341 9.99992 4.00008 9.99992 4.00008H11.9999V5.99341C12.0066 6.00008 13.3333 5.99341 13.3333 5.99341V4.00008H15.3333V2.66675H13.3333Z" fill="#323232"/>
</svg>
