<svg width="30" height="30" viewBox="0 0 30 30" fill="none" xmlns="http://www.w3.org/2000/svg">
<path d="M3.51562 6.73828H18.0469C18.1758 6.73828 18.2812 6.63281 18.2812 6.50391V4.86328C18.2812 4.73438 18.1758 4.62891 18.0469 4.62891H3.51562C3.38672 4.62891 3.28125 4.73438 3.28125 4.86328V6.50391C3.28125 6.63281 3.38672 6.73828 3.51562 6.73828ZM3.51562 19.1602H18.0469C18.1758 19.1602 18.2812 19.0547 18.2812 18.9258V17.2852C18.2812 17.1562 18.1758 17.0508 18.0469 17.0508H3.51562C3.38672 17.0508 3.28125 17.1562 3.28125 17.2852V18.9258C3.28125 19.0547 3.38672 19.1602 3.51562 19.1602ZM26.4844 23.2617H3.51562C3.38672 23.2617 3.28125 23.3672 3.28125 23.4961V25.1367C3.28125 25.2656 3.38672 25.3711 3.51562 25.3711H26.4844C26.6133 25.3711 26.7188 25.2656 26.7188 25.1367V23.4961C26.7188 23.3672 26.6133 23.2617 26.4844 23.2617ZM26.4844 10.8398H3.51562C3.38672 10.8398 3.28125 10.9453 3.28125 11.0742V12.7148C3.28125 12.8438 3.38672 12.9492 3.51562 12.9492H26.4844C26.6133 12.9492 26.7188 12.8438 26.7188 12.7148V11.0742C26.7188 10.9453 26.6133 10.8398 26.4844 10.8398Z" fill="black"/>
</svg>
