<svg width="30" height="30" viewBox="0 0 30 30" fill="none" xmlns="http://www.w3.org/2000/svg">
<path d="M26.4844 4.62891H11.9531C11.8242 4.62891 11.7188 4.73438 11.7188 4.86328V6.50391C11.7188 6.63281 11.8242 6.73828 11.9531 6.73828H26.4844C26.6133 6.73828 26.7188 6.63281 26.7188 6.50391V4.86328C26.7188 4.73438 26.6133 4.62891 26.4844 4.62891ZM26.4844 17.0508H11.9531C11.8242 17.0508 11.7188 17.1562 11.7188 17.2852V18.9258C11.7188 19.0547 11.8242 19.1602 11.9531 19.1602H26.4844C26.6133 19.1602 26.7188 19.0547 26.7188 18.9258V17.2852C26.7188 17.1562 26.6133 17.0508 26.4844 17.0508ZM26.4844 23.2617H3.51562C3.38672 23.2617 3.28125 23.3672 3.28125 23.4961V25.1367C3.28125 25.2656 3.38672 25.3711 3.51562 25.3711H26.4844C26.6133 25.3711 26.7188 25.2656 26.7188 25.1367V23.4961C26.7188 23.3672 26.6133 23.2617 26.4844 23.2617ZM26.4844 10.8398H3.51562C3.38672 10.8398 3.28125 10.9453 3.28125 11.0742V12.7148C3.28125 12.8438 3.38672 12.9492 3.51562 12.9492H26.4844C26.6133 12.9492 26.7188 12.8438 26.7188 12.7148V11.0742C26.7188 10.9453 26.6133 10.8398 26.4844 10.8398Z" fill="black"/>
</svg>
