<svg width="33" height="32" viewBox="0 0 33 32" fill="none" xmlns="http://www.w3.org/2000/svg">
<path d="M22.8474 12C22.8474 10.4087 22.2153 8.88258 21.0901 7.75736C19.9648 6.63214 18.4387 6 16.8474 6C15.2561 6 13.73 6.63214 12.6048 7.75736C11.4796 8.88258 10.8474 10.4087 10.8474 12C10.8474 19 7.84741 21 7.84741 21H25.8474C25.8474 21 22.8474 19 22.8474 12Z" stroke="black" stroke-width="2" stroke-linecap="round" stroke-linejoin="round"/>
<path d="M18.5774 25C18.4016 25.3031 18.1493 25.5547 17.8457 25.7295C17.542 25.9044 17.1978 25.9965 16.8474 25.9965C16.4971 25.9965 16.1528 25.9044 15.8492 25.7295C15.5456 25.5547 15.2932 25.3031 15.1174 25" stroke="black" stroke-width="2" stroke-linecap="round" stroke-linejoin="round"/>
<rect x="1.09741" y="0.25" width="31.5" height="31.5" rx="15.75" stroke="black" stroke-opacity="0.7" stroke-width="0.5"/>
</svg>
