<svg width="25" height="24" viewBox="0 0 25 24" fill="none" xmlns="http://www.w3.org/2000/svg">
<path d="M7.4751 7H7.4851H7.4751ZM7.4751 3H12.4751C12.9871 3 13.4991 3.195 13.8891 3.586L20.8891 10.586C21.264 10.9611 21.4747 11.4697 21.4747 12C21.4747 12.5303 21.264 13.0389 20.8891 13.414L13.8891 20.414C13.514 20.7889 13.0054 20.9996 12.4751 20.9996C11.9448 20.9996 11.4362 20.7889 11.0611 20.414L4.0611 13.414C3.8751 13.2285 3.72759 13.0081 3.62702 12.7655C3.52646 12.5228 3.47483 12.2627 3.4751 12V7C3.4751 5.93913 3.89653 4.92172 4.64667 4.17157C5.39682 3.42143 6.41423 3 7.4751 3V3Z" stroke="black" stroke-width="2" stroke-linecap="round" stroke-linejoin="round"/>
</svg>
