<svg width="30" height="30" viewBox="0 0 30 30" fill="none" xmlns="http://www.w3.org/2000/svg">
<path d="M16.875 29.0625H18.75V21.5625H26.25V19.6875H16.875V29.0625ZM13.125 10.3125V0.9375H11.25V8.4375H3.75005V10.3125H13.125ZM4.61184 25.4633L4.5369 25.3887C3.99019 24.842 3.5565 24.1929 3.26062 23.4786C2.96474 22.7643 2.81245 21.9987 2.81245 21.2256C2.81245 20.4524 2.96474 19.6868 3.26062 18.9725C3.5565 18.2582 3.99019 17.6092 4.5369 17.0625L8.94315 12.6562H6.29138L3.21099 15.7365C1.7553 17.1922 0.9375 19.1666 0.9375 21.2253C0.9375 23.284 1.7553 25.2583 3.21099 26.7141L3.28587 26.7889C4.74274 28.2425 6.7167 29.0589 8.7747 29.0589C10.8327 29.0589 12.8067 28.2425 14.2635 26.7889L14.5313 26.5212V23.8695L12.9375 25.4633C11.8326 26.5656 10.3355 27.1847 8.7747 27.1847C7.21388 27.1847 5.71679 26.5656 4.61184 25.4633ZM26.7891 3.28594L26.7142 3.21094C23.6877 0.184277 18.7631 0.184394 15.7366 3.21094L15.4688 3.47883V6.13049L17.0625 4.53674C18.1675 3.4343 19.6646 2.81517 21.2255 2.81517C22.7863 2.81517 24.2835 3.4343 25.3884 4.53674L25.4634 4.61162C26.0101 5.15832 26.4438 5.80735 26.7397 6.52165C27.0355 7.23596 27.1878 8.00155 27.1878 8.77471C27.1878 9.54787 27.0355 10.3135 26.7397 11.0278C26.4438 11.7421 26.0101 12.3911 25.4634 12.9378L21.0571 17.344H23.7087L26.7891 14.2635C28.2448 12.8078 29.0626 10.8334 29.0626 8.77471C29.0626 6.71603 28.2448 4.74166 26.7891 3.28594Z" fill="black"/>
</svg>
