<svg width="25" height="24" viewBox="0 0 25 24" fill="none" xmlns="http://www.w3.org/2000/svg">
<path d="M17.4751 20H22.4751V18C22.4751 17.3765 22.2808 16.7686 21.9192 16.2606C21.5577 15.7527 21.0469 15.37 20.4578 15.1658C19.8688 14.9615 19.2307 14.9459 18.6324 15.121C18.034 15.2962 17.5051 15.6534 17.1191 16.143L17.4751 20ZM17.4751 20H7.4751H17.4751ZM17.4751 20V18C17.4751 17.344 17.3491 16.717 17.1191 16.143L17.4751 20ZM7.4751 20H2.4751V18C2.47514 17.3765 2.66943 16.7686 3.03096 16.2606C3.39248 15.7527 3.90328 15.37 4.49235 15.1658C5.08141 14.9615 5.71947 14.9459 6.31784 15.121C6.9162 15.2962 7.44513 15.6534 7.8311 16.143L7.4751 20ZM7.4751 20V18C7.4751 17.344 7.6011 16.717 7.8311 16.143L7.4751 20ZM7.8311 16.143C8.20245 15.215 8.84334 14.4195 9.6711 13.8591C10.4989 13.2988 11.4755 12.9993 12.4751 12.9993C13.4747 12.9993 14.4513 13.2988 15.2791 13.8591C16.1069 14.4195 16.7477 15.215 17.1191 16.143H7.8311ZM15.4751 7C15.4751 7.79565 15.159 8.55871 14.5964 9.12132C14.0338 9.68393 13.2707 10 12.4751 10C11.6794 10 10.9164 9.68393 10.3538 9.12132C9.79117 8.55871 9.4751 7.79565 9.4751 7C9.4751 6.20435 9.79117 5.44129 10.3538 4.87868C10.9164 4.31607 11.6794 4 12.4751 4C13.2707 4 14.0338 4.31607 14.5964 4.87868C15.159 5.44129 15.4751 6.20435 15.4751 7V7ZM21.4751 10C21.4751 10.5304 21.2644 11.0391 20.8893 11.4142C20.5142 11.7893 20.0055 12 19.4751 12C18.9447 12 18.436 11.7893 18.0609 11.4142C17.6858 11.0391 17.4751 10.5304 17.4751 10C17.4751 9.46957 17.6858 8.96086 18.0609 8.58579C18.436 8.21071 18.9447 8 19.4751 8C20.0055 8 20.5142 8.21071 20.8893 8.58579C21.2644 8.96086 21.4751 9.46957 21.4751 10ZM7.4751 10C7.4751 10.5304 7.26438 11.0391 6.88931 11.4142C6.51424 11.7893 6.00553 12 5.4751 12C4.94466 12 4.43596 11.7893 4.06088 11.4142C3.68581 11.0391 3.4751 10.5304 3.4751 10C3.4751 9.46957 3.68581 8.96086 4.06088 8.58579C4.43596 8.21071 4.94466 8 5.4751 8C6.00553 8 6.51424 8.21071 6.88931 8.58579C7.26438 8.96086 7.4751 9.46957 7.4751 10Z" stroke="black" stroke-width="2" stroke-linecap="round" stroke-linejoin="round"/>
</svg>
