<svg width="35" height="35" viewBox="0 0 35 35" fill="none" xmlns="http://www.w3.org/2000/svg">
<path d="M31.7755 2.15824L32.6359 3.01865C33.8215 4.20574 33.6422 6.31011 32.2319 7.71886L14.4884 25.4624L8.73966 27.5653C8.01778 27.8307 7.31486 27.4866 7.17195 26.7997C7.12365 26.5505 7.14639 26.2928 7.23757 26.0559L9.38132 20.2576L27.0753 2.5622C28.4855 1.15345 30.5899 0.972613 31.7755 2.1597V2.15824ZM13.714 3.92282C13.9055 3.92282 14.0952 3.96054 14.2721 4.03383C14.449 4.10712 14.6098 4.21454 14.7452 4.34996C14.8806 4.48538 14.9881 4.64614 15.0614 4.82307C15.1346 5.00001 15.1724 5.18964 15.1724 5.38115C15.1724 5.57267 15.1346 5.7623 15.0614 5.93923C14.9881 6.11617 14.8806 6.27693 14.7452 6.41235C14.6098 6.54777 14.449 6.65519 14.2721 6.72848C14.0952 6.80177 13.9055 6.83949 13.714 6.83949H7.8807C7.10715 6.83949 6.36528 7.14678 5.8183 7.69376C5.27132 8.24074 4.96403 8.98261 4.96403 9.75615V27.2562C4.96403 28.0297 5.27132 28.7716 5.8183 29.3185C6.36528 29.8655 7.10715 30.1728 7.8807 30.1728H25.3807C26.1542 30.1728 26.8961 29.8655 27.4431 29.3185C27.9901 28.7716 28.2974 28.0297 28.2974 27.2562V21.4228C28.2974 21.036 28.451 20.6651 28.7245 20.3916C28.998 20.1181 29.3689 19.9645 29.7557 19.9645C30.1425 19.9645 30.5134 20.1181 30.7869 20.3916C31.0604 20.6651 31.214 21.036 31.214 21.4228V27.2562C31.214 28.8032 30.5994 30.287 29.5055 31.3809C28.4115 32.4749 26.9278 33.0895 25.3807 33.0895H7.8807C6.3336 33.0895 4.84987 32.4749 3.75591 31.3809C2.66194 30.287 2.04736 28.8032 2.04736 27.2562V9.75615C2.04736 8.20906 2.66194 6.72533 3.75591 5.63136C4.84987 4.5374 6.3336 3.92282 7.8807 3.92282H13.714Z" fill="#1678F3"/>
</svg>
