<svg width="25" height="24" viewBox="0 0 25 24" fill="none" xmlns="http://www.w3.org/2000/svg">
<path d="M13.4751 16V17C13.4751 17.7956 13.159 18.5587 12.5964 19.1213C12.0338 19.6839 11.2707 20 10.4751 20H6.4751C5.67945 20 4.91639 19.6839 4.35378 19.1213C3.79117 18.5587 3.4751 17.7956 3.4751 17V7C3.4751 6.20435 3.79117 5.44129 4.35378 4.87868C4.91639 4.31607 5.67945 4 6.4751 4H10.4751C11.2707 4 12.0338 4.31607 12.5964 4.87868C13.159 5.44129 13.4751 6.20435 13.4751 7V8M17.4751 16L21.4751 12L17.4751 16ZM21.4751 12L17.4751 8L21.4751 12ZM21.4751 12H7.4751H21.4751Z" stroke="black" stroke-width="2" stroke-linecap="round" stroke-linejoin="round"/>
</svg>
