<svg width="25" height="24" viewBox="0 0 25 24" fill="none" xmlns="http://www.w3.org/2000/svg">
<path d="M9.4751 16H9.4851M9.4751 5H7.4751C6.94466 5 6.43596 5.21071 6.06088 5.58579C5.68581 5.96086 5.4751 6.46957 5.4751 7V19C5.4751 19.5304 5.68581 20.0391 6.06088 20.4142C6.43596 20.7893 6.94466 21 7.4751 21H17.4751C18.0055 21 18.5142 20.7893 18.8893 20.4142C19.2644 20.0391 19.4751 19.5304 19.4751 19V7C19.4751 6.46957 19.2644 5.96086 18.8893 5.58579C18.5142 5.21071 18.0055 5 17.4751 5H15.4751H9.4751ZM9.4751 5C9.4751 5.53043 9.68581 6.03914 10.0609 6.41421C10.436 6.78929 10.9447 7 11.4751 7H13.4751C14.0055 7 14.5142 6.78929 14.8893 6.41421C15.2644 6.03914 15.4751 5.53043 15.4751 5H9.4751ZM9.4751 5C9.4751 4.46957 9.68581 3.96086 10.0609 3.58579C10.436 3.21071 10.9447 3 11.4751 3H13.4751C14.0055 3 14.5142 3.21071 14.8893 3.58579C15.2644 3.96086 15.4751 4.46957 15.4751 5H9.4751ZM12.4751 12H15.4751H12.4751ZM12.4751 16H15.4751H12.4751ZM9.4751 12H9.4851H9.4751Z" stroke="black" stroke-width="2" stroke-linecap="round" stroke-linejoin="round"/>
</svg>
